<?xml version="1.0" encoding="UTF-8" standalone="no"?>
<!-- Created with Inkscape (http://www.inkscape.org/) -->

<svg
   xmlns:dc="http://purl.org/dc/elements/1.1/"
   xmlns:cc="http://creativecommons.org/ns#"
   xmlns:rdf="http://www.w3.org/1999/02/22-rdf-syntax-ns#"
   xmlns:svg="http://www.w3.org/2000/svg"
   xmlns="http://www.w3.org/2000/svg"
   xmlns:sodipodi="http://sodipodi.sourceforge.net/DTD/sodipodi-0.dtd"
   xmlns:inkscape="http://www.inkscape.org/namespaces/inkscape"
   width="210mm"
   height="297mm"
   viewBox="0 0 210 297"
   version="1.1"
   id="svg8"
   inkscape:version="0.92.3 (2405546, 2018-03-11)"
   sodipodi:docname="dessin.svg">
  <defs
     id="defs2" />
  <sodipodi:namedview
     id="base"
     pagecolor="#ffffff"
     bordercolor="#666666"
     borderopacity="1.0"
     inkscape:pageopacity="0.0"
     inkscape:pageshadow="2"
     inkscape:zoom="0.70710678"
     inkscape:cx="164.69817"
     inkscape:cy="849.80604"
     inkscape:document-units="mm"
     inkscape:current-layer="layer1"
     showgrid="false"
     showguides="false"
     inkscape:lockguides="false"
     inkscape:measure-start="8.79464,1117.28"
     inkscape:measure-end="7.43304,1115.8"
     inkscape:window-width="1920"
     inkscape:window-height="1017"
     inkscape:window-x="-8"
     inkscape:window-y="-8"
     inkscape:window-maximized="1">
    <inkscape:grid
       type="xygrid"
       id="grid3713" />
  </sodipodi:namedview>
  <metadata
     id="metadata5">
    <rdf:RDF>
      <cc:Work
         rdf:about="">
        <dc:format>image/svg+xml</dc:format>
        <dc:type
           rdf:resource="http://purl.org/dc/dcmitype/StillImage" />
        <dc:title></dc:title>
      </cc:Work>
    </rdf:RDF>
  </metadata>
  <g
     inkscape:label="Calque 1"
     inkscape:groupmode="layer"
     id="layer1">
    <g
       transform="translate(6.2913319,5.2002919)"
       id="g9088">
      <path
         style="fill:#000000;fill-opacity:0"
         d="M 0,0.5 V 0 H 0.5 1 1.5 2 2.5 3 3.5 4 4.5 5 5.5 6 6.5 7 7.5 8 8.5 9 9.5 10 10.5 11 11.5 12 12.5 13 13.5 14 14.5 15 15.5 16 16.5 17 17.5 18 18.5 19 19.5 20 20.5 21 21.5 22 22.5 23 23.5 24 V 0.5 1 1.5 2 2.5 3 3.5 4 4.5 5 5.5 6 6.5 7 7.5 8 8.5 9 9.5 10 10.5 11 11.5 12 12.5 13 13.5 14 14.5 15 15.5 16 16.5 17 17.5 18 18.5 19 19.5 20 20.5 21 21.5 22 22.5 23 23.5 24 H 23.5 23 22.5 22 21.5 21 20.5 20 19.5 19 18.5 18 17.5 17 16.5 16 15.5 15 14.5 14 13.5 13 12.5 12 11.5 11 10.5 10 9.5 9 8.5 8 7.5 7 6.5 6 5.5 5 4.5 4 3.5 3 2.5 2 1.5 1 0.5 0 V 23.5 23 22.5 22 21.5 21 20.5 20 19.5 19 18.5 18 17.5 17 16.5 16 15.5 15 14.5 14 13.5 13 12.5 12 11.5 11 10.5 10 9.5 9 8.5 8 7.5 7 6.5 6 5.5 5 4.5 4 3.5 3 2.5 2 1.5 1 0.5 M 17.5,20 Q 18,20 18.375,19.875 18.75,19.75 18.75,19.5 18.75,19.25 18.5,19 18.25,18.75 18.125,18.375 18,18 18.125,17.625 18.25,17.25 18.5,17 18.75,16.75 19,16.5 19.25,16.25 19.5,16 19.75,15.75 19.875,15.375 20,15 19.875,14.625 19.75,14.25 19.5,14 19.25,13.75 19,13.5 18.75,13.25 18.375,13.125 18,13 17.625,12.875 17.25,12.75 17.125,12.375 17,12 17.125,11.625 17.25,11.25 17.5,11 17.75,10.75 17.875,10.375 18,10 18,9.5 18,9 18,8.5 18,8 18,7.5 18,7 18,6.5 18,6 17.875,5.625 17.75,5.25 17.5,5 17.25,4.75 17,4.5 16.75,4.25 16.5,4 16.25,3.75 16,3.5 15.75,3.25 15.5,3 15.25,2.75 15,2.5 14.75,2.25 14.5,2.25 14.25,2.25 14,2.5 13.75,2.75 13.5,2.75 13.25,2.75 13,2.5 12.75,2.25 12.375,2.125 12,2 11.625,2.125 11.25,2.25 11,2.5 10.75,2.75 10.5,2.75 10.25,2.75 10,2.5 9.75,2.25 9.5,2.25 9.25,2.25 9,2.5 8.75,2.75 8.5,3 8.25,3.25 8,3.5 7.75,3.75 7.5,4 7.25,4.25 7,4.5 6.75,4.75 6.375,4.875 6,5 5.625,5.125 5.25,5.25 5,5.5 4.75,5.75 4.5,6 4.25,6.25 4,6.5 3.75,6.75 3.5,7 3.25,7.25 3.25,7.5 3.25,7.75 3.5,8 3.75,8.25 4,8.5 4.25,8.75 4.5,9 4.75,9.25 5,9.5 5.25,9.75 5.5,10 5.75,10.25 6,10.5 6.25,10.75 6.5,11 6.75,11.25 6.875,11.625 7,12 6.875,12.375 6.75,12.75 6.375,12.875 6,13 5.625,13.125 5.25,13.25 5,13.5 4.75,13.75 4.5,14 4.25,14.25 4.125,14.625 4,15 4.125,15.375 4.25,15.75 4.5,16 4.75,16.25 5,16.5 5.25,16.75 5.5,17 5.75,17.25 5.875,17.625 6,18 5.875,18.375 5.75,18.75 5.5,19 q -0.25,0.25 -0.25,0.5 0,0.25 0.375,0.375 Q 6,20 6.5,20 q 0.5,0 1,0 0.5,0 1,0 0.5,0 1,0 0.5,0 1,0 0.5,0 1,0 0.5,0 1,0 0.5,0 1,0 0.5,0 1,0 0.5,0 1,0 0.5,0 1,0 0.5,0 1,0"
         id="path9044"
         inkscape:connector-curvature="0" />
      <path
         style="fill:#0f1f20;fill-opacity:1"
         d="M 9,2.5 Q 9.25,2.25 9.5,2.25 9.75,2.25 10,2.5 10.25,2.75 10.5,2.75 10.75,2.75 11,2.5 11.25,2.25 11.625,2.125 12,2 12.375,2.125 12.75,2.25 13,2.5 q 0.25,0.25 0.5,0.25 0.25,0 0.5,-0.25 0.25,-0.25 0.5,-0.25 0.25,0 0.5,0.25 0.25,0.25 0.5,0.5 0.25,0.25 0.5,0.5 0.25,0.25 0.5,0.5 0.25,0.25 0.5,0.5 0.25,0.25 0.5,0.5 0.25,0.25 0.375,0.625 Q 18,6 18,6.5 q 0,0.5 0,1 0,0.5 0,1 0,0.5 0,1 0,0.5 -0.125,0.875 Q 17.75,10.75 17.5,11 q -0.25,0.25 -0.375,0.625 -0.125,0.375 0,0.75 0.125,0.375 0.5,0.5 Q 18,13 18.375,13.125 18.75,13.25 19,13.5 q 0.25,0.25 0.5,0.5 0.25,0.25 0.375,0.625 0.125,0.375 0,0.75 Q 19.75,15.75 19.5,16 19.25,16.25 19,16.5 18.75,16.75 18.5,17 18.25,17.25 18.125,17.625 18,18 18.125,18.375 18.25,18.75 18.5,19 q 0.25,0.25 0.25,0.5 0,0.25 -0.375,0.375 Q 18,20 17.5,20 q -0.5,0 -1,0 -0.5,0 -1,0 -0.5,0 -1,0 -0.5,0 -1,0 -0.5,0 -1,0 -0.5,0 -1,0 -0.5,0 -1,0 -0.5,0 -1,0 Q 9,20 8.5,20 8,20 7.5,20 7,20 6.5,20 6,20 5.625,19.875 5.25,19.75 5.25,19.5 5.25,19.25 5.5,19 5.75,18.75 5.875,18.375 6,18 5.875,17.625 5.75,17.25 5.5,17 5.25,16.75 5,16.5 4.75,16.25 4.5,16 4.25,15.75 4.125,15.375 4,15 4.125,14.625 4.25,14.25 4.5,14 4.75,13.75 5,13.5 5.25,13.25 5.625,13.125 6,13 6.375,12.875 6.75,12.75 6.875,12.375 7,12 6.875,11.625 6.75,11.25 6.5,11 6.25,10.75 6,10.5 5.75,10.25 5.5,10 5.25,9.75 5,9.5 4.75,9.25 4.5,9 4.25,8.75 4,8.5 3.75,8.25 3.5,8 3.25,7.75 3.25,7.5 3.25,7.25 3.5,7 3.75,6.75 4,6.5 4.25,6.25 4.5,6 4.75,5.75 5,5.5 5.25,5.25 5.625,5.125 6,5 6.375,4.875 6.75,4.75 7,4.5 7.25,4.25 7.5,4 7.75,3.75 8,3.5 8.25,3.25 8.5,3 8.75,2.75 9,2.5 M 5.625,15.875 Q 6,16 6.375,15.875 6.75,15.75 6.875,15.375 7,15 6.875,14.625 6.75,14.25 6.375,14.125 6,14 5.625,14.125 q -0.375,0.125 -0.5,0.5 -0.125,0.375 0,0.75 0.125,0.375 0.5,0.5 M 7.25,13.5 q 0,0.25 0.25,0.25 0.25,0 0.25,-0.25 0,-0.25 -0.25,-0.25 -0.25,0 -0.25,0.25 M 8.5,19 Q 9,19 9.375,18.875 9.75,18.75 9.75,18.5 9.75,18.25 9.5,18 9.25,17.75 9,17.5 8.75,17.25 8.5,17.25 8.25,17.25 8,17.5 7.75,17.75 7.5,18 q -0.25,0.25 -0.25,0.5 0,0.25 0.375,0.375 Q 8,19 8.5,19 m 4,-2 q 0.5,0 0.875,-0.125 0.375,-0.125 0.375,-0.375 0,-0.25 -0.375,-0.375 L 13,16 13.28125,16.09375 13.5625,16.1875 13.375,16.125 Q 13.1875,16.0625 12.96875,16.03125 L 12.75,16 12.859375,16.01563 12.96875,16.03126 12.98438,15.515635 13,15 h 0.5 Q 14,15 14.375,14.875 14.75,14.75 14.75,14.5 14.75,14.25 14.375,14.125 14,14 13.5,14 q -0.5,0 -1,0 -0.5,0 -1,0 -0.5,0 -1,0 Q 10,14 9.625,14.125 9.25,14.25 9.25,14.5 q 0,0.25 0.375,0.375 Q 10,15 10.5,15 H 11 l 0.01563,0.515625 0.01563,0.515625 0.109375,-0.01563 L 11.25,16 11.03125,16.03125 Q 10.8125,16.0625 10.625,16.125 L 10.4375,16.1875 10.71875,16.09375 11,16 10.625,16.125 Q 10.25,16.25 10.25,16.5 q 0,0.25 0.375,0.375 Q 11,17 11.5,17 q 0.5,0 1,0 m 0.875,-2 H 13 12.875 12.75 13 q 0.25,0 0.5,0 h 0.25 -0.375 M 13.5,13 Q 14,13 14.375,12.875 14.75,12.75 15,12.5 q 0.25,-0.25 0.5,-0.5 0.25,-0.25 0.25,-0.5 0,-0.25 -0.375,-0.375 Q 15,11 14.875,10.625 14.75,10.25 14.5,10 14.25,9.75 14.125,9.375 14,9 14.5,9 15,9 15.375,8.875 15.75,8.75 16,8.5 16.25,8.25 16.5,8 16.75,7.75 16.875,7.375 17,7 16.875,6.625 16.75,6.25 16.5,6.25 16.25,6.25 16,6.5 15.75,6.75 15.375,6.875 15,7 14.5,7 14,7 13.5,7 13,7 12.5,7 12,7 11.5,7 11,7 10.5,7 10,7 9.5,7 9,7 8.5,7 8,7 7.625,6.875 7.25,6.75 7,6.5 6.75,6.25 6.375,6.125 6,6 5.625,6.125 5.25,6.25 5,6.5 4.75,6.75 4.5,7 4.25,7.25 4.25,7.5 4.25,7.75 4.625,7.875 5,8 5.375,8.125 5.75,8.25 5.875,8.625 6,9 6.125,9.375 6.25,9.75 6.625,9.875 7,10 7.125,10.375 7.25,10.75 7.5,10.75 7.75,10.75 7.875,10.375 8,10 7.875,9.625 7.75,9.25 7.375,9.125 7,9 7.125,8.625 7.25,8.25 7.5,8.25 7.75,8.25 8,8.5 8.25,8.75 8.625,8.875 9,9 9.5,9 10,9 9.875,9.375 9.75,9.75 9.5,10 9.25,10.25 9.125,10.625 9,11 8.625,11.125 8.25,11.25 8.25,11.5 8.25,11.75 8.5,12 8.75,12.25 9,12.5 9.25,12.75 9.625,12.875 10,13 10.5,13 q 0.5,0 1,0 0.5,0 1,0 0.5,0 1,0 m 2.625,-2.625 q 0.125,0.375 0.375,0.375 0.25,0 0.375,-0.375 Q 17,10 16.875,9.625 16.75,9.25 16.5,9.25 q -0.25,0 -0.375,0.375 -0.125,0.375 0,0.75 m -5,4.625 H 11 10.625 10.25 10.5 q 0.25,0 0.5,0 h 0.25 -0.125 M 15.5,19 Q 16,19 16.375,18.875 16.75,18.75 16.75,18.5 16.75,18.25 16.5,18 16.25,17.75 16,17.5 q -0.25,-0.25 -0.5,-0.25 -0.25,0 -0.5,0.25 -0.25,0.25 -0.5,0.5 -0.25,0.25 -0.25,0.5 0,0.25 0.375,0.375 Q 15,19 15.5,19 m 2.125,-3.125 q 0.375,0.125 0.75,0 0.375,-0.125 0.5,-0.5 0.125,-0.375 0,-0.75 -0.125,-0.375 -0.5,-0.5 -0.375,-0.125 -0.75,0 -0.375,0.125 -0.5,0.5 -0.125,0.375 0,0.75 0.125,0.375 0.5,0.5 M 16.25,13.5 q 0,0.25 0.25,0.25 0.25,0 0.25,-0.25 0,-0.25 -0.25,-0.25 -0.25,0 -0.25,0.25"
         id="path9046"
         inkscape:connector-curvature="0" />
      <path
         style="fill:#8fc070;fill-opacity:1"
         d="M 5,6.5 Q 5.25,6.25 5.625,6.125 6,6 6.375,6.125 6.75,6.25 7,6.5 7.25,6.75 7.625,6.875 8,7 8.5,7 q 0.5,0 1,0 0.5,0 1,0 0.5,0 1,0 0.5,0 1,0 0.5,0 1,0 0.5,0 1,0 Q 15,7 15.375,6.875 15.75,6.75 16,6.5 q 0.25,-0.25 0.5,-0.25 0.25,0 0.375,0.375 Q 17,7 16.875,7.375 16.75,7.75 16.5,8 16.25,8.25 16,8.5 15.75,8.75 15.375,8.875 15,9 14.5,9 H 14 14.375 14.75 14.5 Q 14.25,9 14.125,9.125 L 14,9.25 14.0625,9.1875 14.125,9.125 13.5625,9.0625 Q 13,9 12.5,9 12,9 11.5,9 11,9 10.4375,9.0625 L 9.875,9.125 9.9375,9.1875 10,9.25 9.875,9.125 Q 9.75,9 9.5,9 H 9.25 9.625 10 9.5 Q 9,9 8.625,8.875 8.25,8.75 8,8.5 7.75,8.25 7.5,8.25 7.25,8.25 7.125,8.625 L 7,9 V 8.625 8.25 8.5 Q 7,8.75 7.09375,8.90625 L 7.1875,9.0625 7.140625,8.984375 7.09375,8.90625 7.015625,9.484375 6.9375,10.0625 7,10.125 7.0625,10.1875 6.9375,10.0625 Q 6.8125,9.9375 6.625,9.875 L 6.4375,9.8125 6.71875,9.90625 7,10 6.625,9.875 Q 6.25,9.75 6.125,9.375 6,9 5.875,8.625 5.75,8.25 5.375,8.125 5,8 4.625,7.875 4.25,7.75 4.25,7.5 4.25,7.25 4.5,7 4.75,6.75 5,6.5 m 1.25,1 q 0,0.25 0.25,0.25 0.25,0 0.25,-0.25 0,-0.25 -0.25,-0.25 -0.25,0 -0.25,0.25"
         id="path9048"
         inkscape:connector-curvature="0" />
      <path
         style="fill:#0f1f20;fill-opacity:1"
         d="m 6.25,7.5 q 0,-0.25 0.25,-0.25 0.25,0 0.25,0.25 0,0.25 -0.25,0.25 -0.25,0 -0.25,-0.25"
         id="path9050"
         inkscape:connector-curvature="0" />
      <path
         style="fill:#e0ffd0;fill-opacity:1"
         d="M 7.015625,9.484375 7.09375,8.90625 7.046875,8.828125 7,8.75 7.09375,8.90625 Q 7.1875,9.0625 7.375,9.125 L 7.5625,9.1875 7.28125,9.09375 7,9 7.375,9.125 Q 7.75,9.25 7.875,9.625 8,10 7.875,10.375 7.75,10.75 7.5,10.75 7.25,10.75 7.125,10.375 L 7,10 7.09375,10.28125 7.1875,10.5625 7.125,10.375 Q 7.0625,10.1875 6.9375,10.0625 L 6.8125,9.9375 6.875,10 6.9375,10.0625 7.015625,9.484375"
         id="path9052"
         inkscape:connector-curvature="0" />
      <path
         style="fill:#e0ffd0;fill-opacity:1"
         d="M 9.875,9.375 10,9 V 9.375 9.75 9.5 Q 10,9.25 9.875,9.125 L 9.75,9 9.8125,9.0625 9.875,9.125 10.4375,9.0625 Q 11,9 11.5,9 12,9 12.5,9 13,9 13.5625,9.0625 L 14.125,9.125 14.1875,9.0625 14.25,9 14.125,9.125 Q 14,9.25 14,9.5 V 9.75 9.375 9 l 0.125,0.375 Q 14.25,9.75 14.5,10 q 0.25,0.25 0.375,0.625 L 15,11 14.90625,10.71875 14.8125,10.4375 14.875,10.625 q 0.0625,0.1875 0.1875,0.3125 l 0.125,0.125 L 15.125,11 15.0625,10.9375 14.90625,11.34375 Q 14.75,11.75 14.5,12 14.25,12.25 14.109375,12.609375 L 13.96875,12.96875 14.078125,12.953125 14.1875,12.9375 13.96875,12.96875 Q 13.75,13 13.5,13 H 13.25 13.625 14 13.5 q -0.5,0 -1,0 -0.5,0 -1,0 -0.5,0 -1,0 H 10 10.375 10.75 10.5 q -0.25,0 -0.46875,-0.03125 L 9.8125,12.9375 9.921875,12.953125 10.03125,12.96875 9.890625,12.609375 Q 9.75,12.25 9.5,12 9.25,11.75 9.09375,11.34375 L 8.9375,10.9375 8.875,11 8.8125,11.0625 8.9375,10.9375 Q 9.0625,10.8125 9.125,10.625 L 9.1875,10.4375 9.09375,10.71875 9,11 9.125,10.625 Q 9.25,10.25 9.5,10 9.75,9.75 9.875,9.375 m 0.25,2 q 0.125,0.375 0.375,0.375 0.25,0 0.375,-0.375 Q 11,11 10.875,10.625 10.75,10.25 10.5,10.25 q -0.25,0 -0.375,0.375 -0.125,0.375 0,0.75 m 3,0 q 0.125,0.375 0.375,0.375 0.25,0 0.375,-0.375 Q 14,11 13.875,10.625 13.75,10.25 13.5,10.25 q -0.25,0 -0.375,0.375 -0.125,0.375 0,0.75"
         id="path9054"
         inkscape:connector-curvature="0" />
      <path
         style="fill:#e0ffd0;fill-opacity:1"
         d="M 16.125,9.625 Q 16.25,9.25 16.5,9.25 q 0.25,0 0.375,0.375 0.125,0.375 0,0.75 -0.125,0.375 -0.375,0.375 -0.25,0 -0.375,-0.375 Q 16,10 16.125,9.625"
         id="path9056"
         inkscape:connector-curvature="0" />
      <path
         style="fill:#0f1f20;fill-opacity:1"
         d="M 10.125,10.625 Q 10.25,10.25 10.5,10.25 q 0.25,0 0.375,0.375 0.125,0.375 0,0.75 -0.125,0.375 -0.375,0.375 -0.25,0 -0.375,-0.375 -0.125,-0.375 0,-0.75"
         id="path9058"
         inkscape:connector-curvature="0" />
      <path
         style="fill:#0f1f20;fill-opacity:1"
         d="M 13.125,10.625 Q 13.25,10.25 13.5,10.25 q 0.25,0 0.375,0.375 0.125,0.375 0,0.75 -0.125,0.375 -0.375,0.375 -0.25,0 -0.375,-0.375 -0.125,-0.375 0,-0.75"
         id="path9060"
         inkscape:connector-curvature="0" />
      <path
         style="fill:#8fc070;fill-opacity:1"
         d="m 8.25,11.5 q 0,-0.25 0.375,-0.375 L 9,11 8.71875,11.09375 8.4375,11.1875 8.625,11.125 Q 8.8125,11.0625 8.9375,10.9375 L 9.0625,10.8125 9,10.875 8.9375,10.9375 9.09375,11.34375 Q 9.25,11.75 9.5,12 9.75,12.25 9.890625,12.609375 L 10.03125,12.96875 10.140625,12.98438 10.25,13 10.03125,12.96875 Q 9.8125,12.9375 9.625,12.875 L 9.4375,12.8125 9.71875,12.90625 10,13 9.625,12.875 Q 9.25,12.75 9,12.5 8.75,12.25 8.5,12 8.25,11.75 8.25,11.5"
         id="path9062"
         inkscape:connector-curvature="0" />
      <path
         style="fill:#8fc070;fill-opacity:1"
         d="M 14.90625,11.34375 15.0625,10.9375 15,10.875 l -0.0625,-0.0625 0.125,0.125 q 0.125,0.125 0.3125,0.1875 L 15.5625,11.1875 15.28125,11.09375 15,11 l 0.375,0.125 q 0.375,0.125 0.375,0.375 0,0.25 -0.25,0.5 -0.25,0.25 -0.5,0.5 -0.25,0.25 -0.625,0.375 L 14,13 14.28125,12.90625 14.5625,12.8125 14.375,12.875 q -0.1875,0.0625 -0.40625,0.09375 L 13.75,13 13.859375,12.98437 13.96875,12.96874 14.109375,12.609365 Q 14.25,12.25 14.5,12 q 0.25,-0.25 0.40625,-0.65625"
         id="path9064"
         inkscape:connector-curvature="0" />
      <path
         style="fill:#306f50;fill-opacity:1"
         d="m 7.25,13.5 q 0,-0.25 0.25,-0.25 0.25,0 0.25,0.25 0,0.25 -0.25,0.25 -0.25,0 -0.25,-0.25"
         id="path9066"
         inkscape:connector-curvature="0" />
      <path
         style="fill:#306f50;fill-opacity:1"
         d="m 16.25,13.5 q 0,-0.25 0.25,-0.25 0.25,0 0.25,0.25 0,0.25 -0.25,0.25 -0.25,0 -0.25,-0.25"
         id="path9068"
         inkscape:connector-curvature="0" />
      <path
         style="fill:#e0ffd0;fill-opacity:1"
         d="m 5.125,14.625 q 0.125,-0.375 0.5,-0.5 L 6,14 5.71875,14.09375 5.4375,14.1875 5.625,14.125 Q 5.8125,14.0625 6,14.0625 H 6.1875 6.09375 6 l 0.125,0.34375 Q 6.25,14.75 6.59375,14.875 L 6.9375,15 V 14.90625 14.8125 15 q 0,0.1875 -0.0625,0.375 L 6.8125,15.5625 6.90625,15.28125 7,15 6.875,15.375 Q 6.75,15.75 6.375,15.875 6,16 5.625,15.875 5.25,15.75 5.125,15.375 5,15 5.125,14.625"
         id="path9070"
         inkscape:connector-curvature="0" />
      <path
         style="fill:#8fc070;fill-opacity:1"
         d="M 6.125,14.40625 6,14.0625 H 5.90625 5.8125 6 q 0.1875,0 0.375,0.0625 L 6.5625,14.1875 6.28125,14.09375 6,14 6.375,14.125 q 0.375,0.125 0.5,0.5 L 7,15 6.90625,14.71875 6.8125,14.4375 6.875,14.625 Q 6.9375,14.8125 6.9375,15 V 15.1875 15.09375 15 L 6.59375,14.875 Q 6.25,14.75 6.125,14.40625"
         id="path9072"
         inkscape:connector-curvature="0" />
      <path
         style="fill:#306f50;fill-opacity:1"
         d="m 9.25,14.5 q 0,-0.25 0.375,-0.375 Q 10,14 10.5,14 q 0.5,0 1,0 0.5,0 1,0 0.5,0 1,0 0.5,0 0.875,0.125 0.375,0.125 0.375,0.375 0,0.25 -0.375,0.375 Q 14,15 13.5,15 q -0.5,0 -1,0 -0.5,0 -1,0 -0.5,0 -1,0 Q 10,15 9.625,14.875 9.25,14.75 9.25,14.5"
         id="path9074"
         inkscape:connector-curvature="0" />
      <path
         style="fill:#8fc070;fill-opacity:1"
         d="m 17.125,14.625 q 0.125,-0.375 0.5,-0.5 L 18,14 17.71875,14.09375 17.4375,14.1875 17.625,14.125 Q 17.8125,14.0625 18,14.0625 H 18.1875 18.09375 18 l -0.125,0.34375 Q 17.75,14.75 17.40625,14.875 L 17.0625,15 V 15.09375 15.1875 15 q 0,-0.1875 0.0625,-0.375 L 17.1875,14.4375 17.09375,14.71875 17,15 17.125,14.625"
         id="path9076"
         inkscape:connector-curvature="0" />
      <path
         style="fill:#e0ffd0;fill-opacity:1"
         d="M 17.875,14.40625 18,14.0625 H 17.90625 17.8125 18 q 0.1875,0 0.375,0.0625 L 18.5625,14.1875 18.28125,14.09375 18,14 l 0.375,0.125 q 0.375,0.125 0.5,0.5 0.125,0.375 0,0.75 -0.125,0.375 -0.5,0.5 -0.375,0.125 -0.75,0 -0.375,-0.125 -0.5,-0.5 L 17,15 17.09375,15.28125 17.1875,15.5625 17.125,15.375 Q 17.0625,15.1875 17.0625,15 V 14.8125 14.90625 15 l 0.34375,-0.125 Q 17.75,14.75 17.875,14.40625"
         id="path9078"
         inkscape:connector-curvature="0" />
      <path
         style="fill:#8fc070;fill-opacity:1"
         d="M 11.015625,15.515625 11,15 h 0.5 q 0.5,0 1,0 H 13 l -0.01563,0.515625 -0.01563,0.515625 0.109375,0.01563 0.109375,0.01563 -0.21875,-0.03125 Q 12.75,16 12.5,16 H 12.25 12.625 13 12.5 q -0.5,0 -1,0 H 11 11.375 11.75 11.5 q -0.25,0 -0.46875,0.03125 L 10.8125,16.0625 10.921875,16.04687 11.03125,16.03124 11.01562,15.515615 M 13.125,15 H 13 12.625 12.25 12.5 q 0.25,0 0.5,0 h 0.25 -0.125 m -1.75,0 H 11 10.875 10.75 11 q 0.25,0 0.5,0 h 0.25 -0.375"
         id="path9080"
         inkscape:connector-curvature="0" />
      <path
         style="fill:#306f50;fill-opacity:1"
         d="m 10.25,16.5 q 0,-0.25 0.375,-0.375 Q 11,16 11.5,16 q 0.5,0 1,0 0.5,0 0.875,0.125 0.375,0.125 0.375,0.375 0,0.25 -0.375,0.375 Q 13,17 12.5,17 12,17 11.5,17 11,17 10.625,16.875 10.25,16.75 10.25,16.5"
         id="path9082"
         inkscape:connector-curvature="0" />
      <path
         style="fill:#306f50;fill-opacity:1"
         d="m 8,17.5 q 0.25,-0.25 0.5,-0.25 0.25,0 0.5,0.25 0.25,0.25 0.5,0.5 0.25,0.25 0.25,0.5 0,0.25 -0.375,0.375 Q 9,19 8.5,19 8,19 7.625,18.875 7.25,18.75 7.25,18.5 7.25,18.25 7.5,18 7.75,17.75 8,17.5"
         id="path9084"
         inkscape:connector-curvature="0" />
      <path
         style="fill:#306f50;fill-opacity:1"
         d="m 15,17.5 q 0.25,-0.25 0.5,-0.25 0.25,0 0.5,0.25 0.25,0.25 0.5,0.5 0.25,0.25 0.25,0.5 0,0.25 -0.375,0.375 Q 16,19 15.5,19 15,19 14.625,18.875 14.25,18.75 14.25,18.5 q 0,-0.25 0.25,-0.5 0.25,-0.25 0.5,-0.5"
         id="path9086"
         inkscape:connector-curvature="0" />
    </g>
  </g>
</svg>
